<?xml version="1.0" encoding="UTF-8" standalone="no"?>
<!-- Created with Inkscape (http://www.inkscape.org/) -->

<svg
   xmlns:dc="http://purl.org/dc/elements/1.1/"
   xmlns:cc="http://creativecommons.org/ns#"
   xmlns:rdf="http://www.w3.org/1999/02/22-rdf-syntax-ns#"
   xmlns:svg="http://www.w3.org/2000/svg"
   xmlns="http://www.w3.org/2000/svg"
   xmlns:xlink="http://www.w3.org/1999/xlink"
   xmlns:sodipodi="http://sodipodi.sourceforge.net/DTD/sodipodi-0.dtd"
   xmlns:inkscape="http://www.inkscape.org/namespaces/inkscape"
   width="700"
   height="700"
   id="svg2"
   version="1.1"
   inkscape:version="0.48.4 r9939"
   sodipodi:docname="circle evolvent1.svg">
  <defs
     id="defs4">
    <linearGradient
       id="linearGradient4884">
      <stop
         style="stop-color:#fff240;stop-opacity:1;"
         offset="0"
         id="stop4886" />
      <stop
         id="stop4888"
         offset="0.3508211076"
         style="stop-color:#f7f1a5;stop-opacity:1;" />
      <stop
         style="stop-color:#ecc709;stop-opacity:1"
         offset="0.6355100274"
         id="stop4890" />
      <stop
         style="stop-color:#937b07;stop-opacity:1"
         offset="0.9225546718"
         id="stop4892" />
      <stop
         style="stop-color:#544b08;stop-opacity:1"
         offset="1"
         id="stop4894" />
    </linearGradient>
    <linearGradient
       id="linearGradient4872">
      <stop
         id="stop4874"
         offset="0"
         style="stop-color:#aeaeae;stop-opacity:1;" />
      <stop
         style="stop-color:#0e0e0f;stop-opacity:1;"
         offset="0.3508211076"
         id="stop4876" />
      <stop
         id="stop4878"
         offset="0.6355100274"
         style="stop-color:#383939;stop-opacity:1;" />
      <stop
         id="stop4880"
         offset="0.9225546718"
         style="stop-color:#b6b6b7;stop-opacity:1;" />
      <stop
         id="stop4882"
         offset="1"
         style="stop-color:#0b0b0b;stop-opacity:1;" />
    </linearGradient>
    <radialGradient
       inkscape:collect="always"
       xlink:href="#linearGradient4872"
       id="radialGradient3114"
       gradientUnits="userSpaceOnUse"
       cx="1771.653564453125"
       cy="-719.29150390625"
       fx="1771.653564453125"
       fy="-719.29150390625"
       r="1771.653564453125" />
    <radialGradient
       inkscape:collect="always"
       xlink:href="#linearGradient4884"
       id="radialGradient3116"
       gradientUnits="userSpaceOnUse"
       gradientTransform="matrix(1.04183941566826,1.527707599872713e-8,-1.527707596836947e-8,1.04183941282633,-74.12496089198009,30.09470606543402)"
       cx="1771.653564453125"
       cy="-719.29150390625"
       fx="1771.653564453125"
       fy="-719.29150390625"
       r="1700.50537109375" />
    <radialGradient
       inkscape:collect="always"
       xlink:href="#linearGradient4872-5"
       id="radialGradient4738-8"
       cx="1771.653564453125"
       cy="2824.015625"
       fx="1771.653564453125"
       fy="2824.015625"
       r="1771.653564453125"
       gradientUnits="userSpaceOnUse" />
    <linearGradient
       id="linearGradient4872-5">
      <stop
         id="stop4874-0"
         offset="0"
         style="stop-color:#aeaeae;stop-opacity:1;" />
      <stop
         style="stop-color:#0e0e0f;stop-opacity:1;"
         offset="0.3508211076"
         id="stop4876-5" />
      <stop
         id="stop4878-5"
         offset="0.6355100274"
         style="stop-color:#383939;stop-opacity:1;" />
      <stop
         id="stop4880-2"
         offset="0.9225546718"
         style="stop-color:#b6b6b7;stop-opacity:1;" />
      <stop
         id="stop4882-5"
         offset="1"
         style="stop-color:#0b0b0b;stop-opacity:1;" />
    </linearGradient>
    <linearGradient
       id="linearGradient4884-9">
      <stop
         style="stop-color:#fff240;stop-opacity:1;"
         offset="0"
         id="stop4886-4" />
      <stop
         id="stop4888-6"
         offset="0.3508211076"
         style="stop-color:#f7f1a5;stop-opacity:1;" />
      <stop
         style="stop-color:#ecc709;stop-opacity:1"
         offset="0.6355100274"
         id="stop4890-7" />
      <stop
         style="stop-color:#937b07;stop-opacity:1"
         offset="0.9225546718"
         id="stop4892-5" />
      <stop
         style="stop-color:#544b08;stop-opacity:1"
         offset="1"
         id="stop4894-1" />
    </linearGradient>
    <radialGradient
       r="1720.170288085938"
       fy="2824.015625"
       fx="1771.653564453125"
       cy="2824.015625"
       cx="1771.653564453125"
       gradientTransform="matrix(1.029929149707845,-1.039204062761357e-8,1.039204084271929e-8,1.029929172392876,-53.02411410823915,-84.52043155023534)"
       gradientUnits="userSpaceOnUse"
       id="radialGradient3145"
       xlink:href="#linearGradient4884-9"
       inkscape:collect="always" />
  </defs>
  <sodipodi:namedview
     id="base"
     pagecolor="#d2d2d2"
     bordercolor="#666666"
     borderopacity="1.0"
     inkscape:pageopacity="1"
     inkscape:pageshadow="2"
     inkscape:zoom="0.883333333333328"
     inkscape:cx="349.9999999999914"
     inkscape:cy="349.9999999999937"
     inkscape:document-units="px"
     inkscape:current-layer="layer1"
     showgrid="false"
     borderlayer="true"
     inkscape:showpageshadow="false"
     units="px"
     inkscape:object-nodes="true"
     inkscape:snap-smooth-nodes="true"
     inkscape:window-width="1366"
     inkscape:window-height="709"
     inkscape:window-x="0"
     inkscape:window-y="27"
     inkscape:window-maximized="1"
     showguides="true"
     inkscape:guide-bbox="true" />
  <metadata
     id="metadata7">
    <rdf:RDF>
      <cc:Work
         rdf:about="">
        <dc:format>image/svg+xml</dc:format>
        <dc:type
           rdf:resource="http://purl.org/dc/dcmitype/StillImage" />
        <dc:title></dc:title>
      </cc:Work>
    </rdf:RDF>
  </metadata>
  <g
     inkscape:label="1. réteg"
     inkscape:groupmode="layer"
     id="layer1"
     transform="translate(0,-352.36203582285)">
    <g
       id="g4915"
       transform="matrix(0.169333333333333,0,0,0.1693333333333331,49.99999999999955,224.1620595952351)">
      <path
         d="m 1771.653543307086,3616.323875359926 c 46.036143705297,0 92.246135599659,-4.042850432381 137.582886839418,-12.036942893619 45.33675123976,-7.994092461237 90.142675913798,-19.999803793775 133.402500443104,-35.745092262022 43.259824529306,-15.745288468246 85.300276634687,-35.349073237284 125.168746575745,-58.367145089932 39.868469941058,-23.018071852648 77.866071614055,-49.624278977973 113.131803682126,-79.215741749486 35.26573206807,-29.591462771515 68.065945409568,-62.391676113011 97.657408181083,-97.657408181081 29.591462771513,-35.26573206807 56.197669896837,-73.263333741069 79.215741749485,-113.131803682127 23.018071852648,-39.86846994106 42.621856621685,-81.908922046439 58.367145089932,-125.168746575746 15.745288468245,-43.259824529307 27.750999800785,-88.065749203343 35.745092262021,-133.402500443102 7.994092461237,-45.336751239759 12.036942893621,-91.546743134124 12.036942893621,-137.582886839421 0,-46.036143705295 -4.042850432384,-92.246135599657 -12.036942893621,-137.58288683942 -7.994092461237,-45.336751239759 -19.999803793775,-90.142675913794 -35.745092262021,-133.4025004431 -15.745288468247,-43.259824529308 -35.349073237285,-85.300276634689 -58.367145089935,-125.168746575745 -23.018071852645,-39.868469941061 -49.62427897797,-77.866071614059 -79.215741749483,-113.131803682129 -29.591462771514,-35.265732068071 -62.391676113013,-68.065945409567 -97.657408181083,-97.65740818108 -35.26573206807,-29.591462771515 -73.263333741067,-56.197669896838 -113.131803682128,-79.215741749486 -39.868469941057,-23.018071852649 -81.908922046438,-42.621856621687 -125.168746575745,-58.367145089931 -43.25982452931,-15.745288468248 -88.065749203344,-27.750999800785 -133.402500443106,-35.745092262021 -45.336751239759,-7.994092461239 -91.546743134121,-12.036942893621 -137.582886839418,-12.036942893621 -46.036143705295,0 -92.246135599658,4.042850432382 -137.582886839416,12.036942893621 -45.336751239762,7.994092461236 -90.142675913799,19.999803793773 -133.402500443104,35.745092262021 -43.259824529307,15.745288468244 -85.300276634689,35.349073237283 -125.168746575742,58.367145089931 -39.868469941061,23.018071852648 -77.866071614063,49.624278977973 -113.131803682129,79.215741749486 -35.265732068068,29.591462771515 -68.065945409565,62.391676113013 -97.657408181079,97.65740818108 -29.591462771514,35.265732068071 -56.197669896837,73.263333741068 -79.215741749488,113.131803682127 -23.018071852644,39.868469941057 -42.621856621686,81.908922046439 -58.367145089931,125.168746575745 -15.745288468248,43.259824529307 -27.7509998007966,88.065749203343 -35.7450922620337,133.402500443102 -7.9940924612368,45.33675123976 -12.0369428936209,91.546743134122 -12.0369428936209,137.58288683942 0,46.036143705297 4.0428504323801,92.246135599657 12.0369428936209,137.582886839421 7.9940924612371,45.336751239759 19.9998037937837,90.142675913798 35.7450922620337,133.4025004431 15.745288468245,43.259824529313 35.349073237282,85.300276634689 58.367145089931,125.168746575745 23.018071852649,39.868469941058 49.624278977971,77.866071614059 79.215741749488,113.131803682129 29.591462771514,35.265732068067 62.391676113009,68.065945409565 97.657408181079,97.65740818108 35.265732068068,29.591462771516 73.263333741071,56.197669896841 113.131803682129,79.215741749486 39.868469941053,23.018071852649 81.908922046438,42.621856621685 125.168746575742,58.367145089932 43.259824529308,15.745288468248 88.065749203345,27.750999800784 133.402500443104,35.745092262021 45.336751239758,7.994092461239 91.546743134123,12.03694289362 137.582886839418,12.03694289362 z m 0,979.345275590552 c -102.939853638966,0 -206.26844329484,-9.040080213007 -307.644409252436,-26.915398206718 -101.375965957596,-17.875317993705 -201.564968703565,-44.720880369968 -298.296789552882,-79.928383865492 C 1068.98052365245,4453.617865382751 974.9752999667397,4409.782509671525 885.8267716535425,4358.312582852046 796.6782433403458,4306.842656032559 711.7130998676472,4247.349422087911 632.8565970120356,4181.180959625833 554.0000941564251,4115.012497163759 480.6566537867179,4041.669056794052 414.4881913246447,3962.812553938441 348.3197288625713,3883.956051082831 288.8264949179182,3798.990907610131 237.3565680984351,3709.842379296934 185.886641278952,3620.693850983737 142.0512855677321,3526.688627298028 106.8437820722095,3429.95680644871 71.63627857668693,3333.224985599392 44.79071620042505,3233.035982853422 26.91539820671804,3131.660016895827 9.040080213010998,3030.284050938231 -3.907985046680551e-14,2926.955461282356 0,2824.01560764339 4.973799150320703e-14,2721.075754004424 9.040080213011249,2617.74716434855 26.91539820671833,2516.371198390954 44.79071620042541,2414.995232433358 71.63627857668717,2314.80622968739 106.8437820722098,2218.074408838072 c 35.2075034955226,-96.731820849318 79.0428592067428,-190.737044535028 130.5127860262259,-279.885572848224 51.4699268194833,-89.148528313197 110.9631607641365,-174.113671785896 177.1316232262102,-252.970174641508 66.1684624620735,-78.856502855611 139.5119028317801,-152.199943225318 218.3684056873913,-218.368405687391 78.8565028556111,-66.168462462073 163.8216463283095,-125.661696406726 252.9701746415068,-177.131623226211 89.1485283131959,-51.469926819481 183.1537519989061,-95.305282530703 279.885572848224,-130.512786026224 96.731820849319,-35.207503495523 196.920823595288,-62.053065871785 298.296789552884,-79.928383865491 101.375965957595,-17.875317993708 204.704555613469,-26.915398206719 307.644409252435,-26.915398206719 102.939853638966,0 206.268443294839,9.040080213011 307.644409252434,26.915398206719 101.375965957599,17.875317993706 201.564968703567,44.720880369968 298.296789552885,79.928383865491 96.731820849318,35.207503495521 190.737044535028,79.042859206743 279.885572848224,130.512786026224 89.148528313198,51.469926819485 174.113671785899,110.963160764138 252.970174641508,177.131623226212 78.856502855611,66.168462462074 152.199943225318,139.511902831781 218.368405687391,218.368405687392 66.168462462073,78.856502855611 125.661696406726,163.821646328309 177.131623226209,252.970174641506 51.469926819484,89.148528313197 95.305282530704,183.153751998907 130.512786026226,279.885572848224 35.207503495522,96.731820849318 62.053065871784,196.920823595287 79.928383865491,298.296789552884 17.875317993707,101.375965957594 26.915398206719,204.704555613468 26.915398206719,307.644409252434 0,102.939853638965 -9.04008021301,206.268443294839 -26.915398206717,307.644409252436 -17.875317993708,101.375965957596 -44.720880369969,201.564968703565 -79.928383865492,298.296789552883 -35.207503495522,96.731820849319 -79.042859206742,190.737044535029 -130.512786026226,279.885572848226 -51.469926819484,89.148528313197 -110.963160764136,174.113671785897 -177.131623226212,252.970174641507 -66.168462462072,78.856502855611 -139.511902831779,152.199943225324 -218.368405687389,218.368405687397 -78.85650285561,66.168462462073 -163.821646328311,125.661696406727 -252.970174641508,177.131623226208 -89.148528313196,51.469926819481 -183.153751998907,95.305282530704 -279.885572848224,130.512786026223 -96.731820849318,35.207503495524 -196.920823595286,62.053065871786 -298.296789552883,79.928383865491 -101.375965957596,17.875317993711 -204.70455561347,26.915398206719 -307.644409252437,26.915398206719 z"
         style="color:#000000;fill:url(#radialGradient4738-8);fill-opacity:1;fill-rule:nonzero;stroke:none;stroke-width:17.9330005646;marker:none;visibility:visible;display:inline;overflow:visible;enable-background:accumulate"
         id="path3065"
         inkscape:connector-curvature="0" />
      <path
         id="path4655"
         style="color:#000000;fill:url(#radialGradient3145);fill-opacity:1;stroke:none;stroke-width:17.9330005646;marker:none;visibility:visible;display:inline;overflow:visible;enable-background:accumulate"
         d="m 2079.297952559529,4568.753752743753 c 101.37596595759,-17.875317993688 201.56496870356,-44.72088036996 298.29678955288,-79.928383865481 96.73182084932,-35.207503495516 190.73704453503,-79.042859206736 279.88557284822,-130.512786026226 89.1485283132,-51.46992681948 174.1136717859,-110.963160764125 252.97017464151,-177.131623226212 78.856502855609,-66.168462462058 152.19994322532,-139.511902831774 218.36840568739,-218.368405687389 66.16846246207,-78.856502855615 125.661696406731,-163.821646328284 177.13162322621,-252.970174641504 51.469926819491,-89.148528313196 95.30528253071,-183.153751998901 130.512786026221,-279.885572848234 35.207503495519,-96.731820849337 62.053065871779,-196.920823595296 79.928383865499,-298.29678955288 17.87531799371,-101.375965957608 26.91539820672,-204.704555613463 26.91539820672,-307.644409252437 0,-102.939853638944 -9.04008021301,-206.268443294829 -26.91539820672,-307.644409252438 -17.87531799372,-101.375965957604 -44.72088036998,-201.564968703563 -79.928383865499,-298.296789552895 -35.207503495511,-96.731820849323 -79.042859206741,-190.737044535018 -130.512786026221,-279.885572848229 -51.469926819479,-89.148528313177 -110.963160764129,-174.113671785889 -177.13162322621,-252.970174641489 -66.16846246207,-78.856502855612 -139.511902831781,-152.199943225291 -218.36840568739,-218.368405687388 -78.85650285561,-66.168462462083 -163.82164632831,-125.661696406743 -252.97017464151,-177.13162322621 -89.14852831319,-51.469926819482 -183.1537519989,-95.30528253071 -279.88557284822,-130.512786026223 -96.73182084932,-35.207503495521 -196.92082359529,-62.053065871798 -298.2967895529,-79.928383865489 -101.375965957581,-17.87531799372 -204.704555613451,-26.915398206731 -307.64440925242,-26.915398206781 -101.35919502971,-3e-11 -203.101156969969,8.90126827464 -302.920478074309,26.502107781309 -98.26267625107,17.326361019702 -195.37484132636,43.347487226893 -289.135995713459,77.473756554253 -92.27582115598,33.585652243237 -181.9506472099804,75.401710375866 -266.99250399218,124.500649281457 -83.6729662718576,48.308609600949 -163.4194939890094,104.147729454533 -237.4325778682414,166.252080839912 -72.802229135119,61.088323616154 -140.5146657509067,128.800760231926 -201.6029893670747,201.602989367057 -60.0722958469851,71.591374391051 -114.08435865508,148.728594230432 -160.8123096467535,229.663779481622 -45.9376216870513,79.566294740856 -85.0612830484024,163.467257285919 -116.4844669552985,249.80174551747 -30.8825668227801,84.849155000441 -54.430384522655,172.73080706373 -70.109874620277,261.653614195181 -15.40501161059,87.366162278101 -23.1957843784366,176.4151024936 -23.1957843784366,265.129028649149 0,87.133267546324 7.6519608294966,174.595580046212 22.7824939530747,260.405097471063 14.8560546365679,84.252872571587 37.16721808279,167.51926812894 66.4279336533199,247.912423436022 28.7200984864358,78.907822075973 64.4782638835951,155.591455234915 106.4642390474655,228.313297424078 41.1956458592397,71.352951678833 88.8130090080195,139.357593946052 141.77311047072,202.472985128401 51.9440736935285,61.90453643824 109.5207035522617,119.48116629698 171.4252399904908,171.425239990478 60.6936816941412,50.928045924361 126.0890160836206,96.718352027604 194.704186741772,136.333339277564 67.2462801477993,38.824657945338 138.1560497977989,71.890426571158 211.1225389493279,98.448056721229 71.48115592041,26.017013065993 145.517038465751,45.854868004953 220.430041917711,59.064051719392 73.35635859868,12.934705227487 148.1256493738,19.476170550175 222.613648045921,19.476170550175 72.907340062869,0 146.090003122379,-6.402653384318 217.889716867779,-19.062880124778 70.243068892131,-12.38574825343 139.66369493146,-30.986948938748 206.688851158561,-55.382110752471 65.53982299599,-23.854544729567 129.23226325983,-53.554817391209 189.63409085595,-88.42782881335 59.03293708578,-34.082682117501 115.29569390311,-73.47828856147 167.513392388561,-117.294140101521 51.00684374135,-42.799823770908 98.44766684304,-90.240646872588 141.24749061391,-141.24749061394 41.78379600171,-49.795988997234 79.35234540013,-103.449437936782 111.8543689084,-159.744594001902 31.71169420363,-54.92626555476 58.71957009389,-112.844842309672 80.41164648713,-172.4433323812 21.15145930915,-58.113156840378 37.27935148717,-118.303269867718 48.01822881854,-179.206469640259 10.46439884437,-59.346554919231 15.75655672191,-119.836196253972 15.75655672191,-180.09826744267 0,-58.681412579461 -5.15334593919,-117.584426198571 -15.34326629652,-175.374336264541 -9.915441870352,-56.233265212647 -24.80667979472,-111.808121734031 -44.3362878516,-165.465278881101 -18.98899097279,-52.17182391596 -42.63137089884,-102.87307128471 -70.391418579301,-150.954884287799 -26.96971837583,-46.71292249272 -58.143568114951,-91.23379386012 -92.815169732361,-132.55379964869 -33.655573848238,-40.109151044431 -70.960590192858,-77.414167389091 -111.069741237332,-111.069741237312 -38.89829630036,-32.639546079037 -80.809859790008,-61.98633877268 -124.785001262062,-87.37539853921 -42.60625096172,-24.598730461927 -87.533634821591,-45.548713616627 -133.76412581311,-62.375236253058 -44.745157760419,-16.285905552329 -91.089501269799,-28.703834969419 -137.98289736283,-36.97240591768 -45.336751239759,-7.994092461239 -91.546743134122,-12.036942893618 -137.582886839401,-12.036942893618 46.0361437053,0 92.246135599659,4.042850432379 137.582886839421,12.03694289361 45.336751239759,7.99409246121 90.142675913801,19.99980379377 133.40250044311,35.745092261991 43.25982452929,15.745288468249 85.300276634682,35.34907323731 125.168746575743,58.36714508992 39.868469941071,23.018071852668 77.866071614068,49.624278977979 113.131803682138,79.215741749489 35.265732068071,29.591462771511 68.065945409559,62.391676113009 97.65740818107,97.65740818109 29.591462771511,35.26573206806 56.197669896831,73.263333741083 79.21574174948,113.13180368211 23.018071852649,39.868469941059 42.621856621689,81.908922046431 58.367145089921,125.168746575721 15.745288468248,43.259824529319 27.750999800789,88.06574920335 35.745092262021,133.402500443109 7.994092461232,45.336751239765 12.036942893621,91.546743134142 12.036942893621,137.58288683944 0,46.036143705299 -4.042850432369,92.246135599672 -12.036942893621,137.582886839431 -7.994092461227,45.336751239759 -19.999803793768,90.142675913793 -35.745092262021,133.402500443113 -15.745288468247,43.259824529286 -35.349073237272,85.300276634691 -58.367145089921,125.168746575747 -23.018071852649,39.868469941054 -49.624278977969,77.866071614023 -79.21574174948,113.131803682113 -29.591462771511,35.265732068052 -62.391676112999,68.065945409551 -97.65740818107,97.657408181091 -35.26573206807,29.59146277151 -73.263333741067,56.197669896821 -113.131803682138,79.215741749489 -39.868469941061,23.01807185261 -81.908922046433,42.621856621671 -125.16874657574,58.36714508992 -43.25982452931,15.74528846825 -88.065749203349,27.75099980081 -133.402500443111,35.745092262012 -45.336751239759,7.994092461237 -91.546743134121,12.03694289361 -137.582886839421,12.036942893506 -46.03614370529,-1.1e-10 -92.246135599639,-4.04285043246 -137.582886839421,-12.036942893691 -46.893396093031,-8.268570948213 -93.237739602381,-20.686500365302 -137.98289736281,-36.972405917687 -46.230490991519,-16.826522636401 -91.157874851361,-37.776505791101 -133.76412581309,-62.375236253049 -43.97514147207,-25.38905976656 -85.8867049617,-54.73585246018 -124.78500126206,-87.37539853921 -40.109151044461,-33.655573848223 -77.414167389089,-70.960590192881 -111.069741237329,-111.069741237322 -34.671601617441,-41.320005788567 -65.84545135653,-85.840877155967 -92.815169732349,-132.55379964868 -27.76004768044,-48.081813003093 -51.402427606521,-98.783060371843 -70.391418579311,-150.954884287803 -19.5296080568899,-53.657157147065 -34.42084598126,-109.232013668448 -44.3362878516001,-165.4652788811 -10.1899203573395,-57.789910065967 -15.3432662965497,-116.692923685071 -15.3432662965497,-175.37433626454 0,-60.262071188699 5.2921578775495,-120.751712523429 15.7565567219101,-180.09826744267 10.7388773313794,-60.903199772511 26.8667695093898,-121.093312799851 48.0182288185695,-179.206469640259 21.6920763932309,-59.59849007152 48.6999522834982,-117.51706682644 80.4116464871312,-172.44333238119 32.502023508259,-56.29515606512 70.070572906689,-109.948605004691 111.854368908399,-159.74459400191 42.79982377088,-51.006843741351 90.240646872561,-98.447666843052 141.24749061391,-141.24749061394 52.21769848544,-43.815851540051 108.48045530277,-83.211457984019 167.513392388551,-117.294140101541 60.40182759613,-34.87301142214 124.094267859969,-64.573284083759 189.634090855958,-88.42782881335 67.025156227101,-24.395161813701 136.445782266429,-42.996362499021 206.68885115854,-55.38211075248 71.799713745409,-12.660226740461 144.98237680491,-19.062880124779 217.889716867772,-19.062880124779 74.487998672148,0 149.257289447241,6.541465322699 222.61364804595,19.47617055021 74.913003451948,13.20918371444 148.948885997288,33.047038653399 220.430041917697,59.06405171939 72.966489151539,26.557630150068 143.876258801542,59.623398775889 211.122538949337,98.448056721229 68.61517065814,39.61498724998 134.01050504763,85.405293353231 194.704186741752,136.333339277591 61.904536438231,51.944073693498 119.481166296971,109.520703552239 171.425239990479,171.425239990479 52.960101462701,63.115391182349 100.577464611481,131.120033449581 141.77311047072,202.4729851284 41.985975163881,72.721842189152 77.744140561028,149.405475348081 106.464239047471,228.313297424072 29.26071557053,80.39315530708 51.571879016758,163.65955086441 66.42793365331,247.912423436 15.130533123588,85.809517424862 22.782493953081,173.271829924749 22.782493953081,260.405097471069 0,88.713926155553 -7.790772767848,177.762866371053 -23.195784378438,265.129028649153 -15.679490097622,88.92280713145 -39.227307797491,176.80445919474 -70.109874620282,261.65361419518 -31.423183906898,86.334488231548 -70.546845268238,170.235450776596 -116.484466955279,249.801745517471 -46.727950991668,80.93518525119 -100.740013799777,158.07240509057 -160.812309646783,229.663779481624 -61.088323616178,72.802229135128 -128.800760231928,140.514665750908 -201.602989367057,201.602989367046 -74.013083879217,62.104351385382 -153.759611596392,117.943471238973 -237.432577868241,166.252080839924 -85.041856782193,49.098938905594 -174.716682836181,90.914997038215 -266.99250399218,124.500649281451 -93.761154387108,34.126269327362 -190.873319462401,60.14739553455 -289.13599571347,77.47375655426 -99.819321104319,17.600839506661 -201.56128304459,26.502107781349 -302.92047807429,26.502107781319 102.939853638971,-3.1e-11 206.268443294841,-9.040080213057 307.64440925244,-26.915398206751 z"
         inkscape:connector-curvature="0"
         sodipodi:nodetypes="ssssssssssssssssssssssssssssssssssssssssssssssssssssscssssssssssssssssssssssssssssssssssssssssssssssssssssscs" />
    </g>
  </g>
</svg>
